<mxfile host="app.diagrams.net" agent="Mozilla/5.0 (Macintosh; Intel Mac OS X 10_15_7) AppleWebKit/605.1.15 (KHTML, like Gecko) Version/18.3.1 Safari/605.1.15" version="26.2.14">
  <diagram name="第 1 页" id="bb4P5hw4HZRwwf8iZv8R">
    <mxGraphModel dx="1677" dy="1657" grid="0" gridSize="10" guides="1" tooltips="1" connect="1" arrows="1" fold="1" page="0" pageScale="1" pageWidth="827" pageHeight="1169" math="0" shadow="0">
      <root>
        <mxCell id="0" />
        <mxCell id="1" parent="0" />
        <mxCell id="e23MiZItnUsEhFVkmW49-19" value="" style="rounded=1;whiteSpace=wrap;html=1;fillColor=#d5e8d4;strokeColor=#82b366;" vertex="1" parent="1">
          <mxGeometry x="498" y="-270.75" width="357" height="167.5" as="geometry" />
        </mxCell>
        <mxCell id="89p4u61IxVl6NUVOiBiR-15" value="" style="rounded=1;whiteSpace=wrap;html=1;fillColor=#d5e8d4;strokeColor=#82b366;" parent="1" vertex="1">
          <mxGeometry x="42.75" y="-270.75" width="357" height="167.5" as="geometry" />
        </mxCell>
        <mxCell id="89p4u61IxVl6NUVOiBiR-1" value="" style="rounded=1;whiteSpace=wrap;html=1;fillColor=#fff2cc;strokeColor=#d6b656;" parent="1" vertex="1">
          <mxGeometry x="252.37" y="-232" width="106" height="120" as="geometry" />
        </mxCell>
        <mxCell id="89p4u61IxVl6NUVOiBiR-5" value="VM" style="text;strokeColor=none;align=center;fillColor=none;html=1;verticalAlign=middle;whiteSpace=wrap;rounded=0;" parent="1" vertex="1">
          <mxGeometry x="279.87" y="-224" width="51" height="13" as="geometry" />
        </mxCell>
        <mxCell id="89p4u61IxVl6NUVOiBiR-20" value="10.1.1.4" style="text;strokeColor=none;align=center;fillColor=none;html=1;verticalAlign=middle;whiteSpace=wrap;rounded=0;" parent="1" vertex="1">
          <mxGeometry x="156" y="-267" width="112" height="30" as="geometry" />
        </mxCell>
        <mxCell id="89p4u61IxVl6NUVOiBiR-43" value="" style="rounded=1;whiteSpace=wrap;html=1;fillColor=#e1d5e7;strokeColor=#9673a6;" parent="1" vertex="1">
          <mxGeometry x="266.25" y="-203" width="78.25" height="81" as="geometry" />
        </mxCell>
        <mxCell id="89p4u61IxVl6NUVOiBiR-3" value="QP" style="rounded=1;whiteSpace=wrap;html=1;fillColor=#dae8fc;strokeColor=#6c8ebf;" parent="1" vertex="1">
          <mxGeometry x="288" y="-171.5" width="34.75" height="43" as="geometry" />
        </mxCell>
        <mxCell id="89p4u61IxVl6NUVOiBiR-44" value="Process" style="text;strokeColor=none;align=center;fillColor=none;html=1;verticalAlign=middle;whiteSpace=wrap;rounded=0;" parent="1" vertex="1">
          <mxGeometry x="281.5" y="-195" width="53.25" height="16" as="geometry" />
        </mxCell>
        <mxCell id="89p4u61IxVl6NUVOiBiR-58" value="" style="rounded=1;whiteSpace=wrap;html=1;fillColor=#fff2cc;strokeColor=#d6b656;" parent="1" vertex="1">
          <mxGeometry x="72.75" y="-232" width="106" height="120" as="geometry" />
        </mxCell>
        <mxCell id="89p4u61IxVl6NUVOiBiR-59" value="VM" style="text;strokeColor=none;align=center;fillColor=none;html=1;verticalAlign=middle;whiteSpace=wrap;rounded=0;" parent="1" vertex="1">
          <mxGeometry x="100.25" y="-224" width="51" height="13" as="geometry" />
        </mxCell>
        <mxCell id="89p4u61IxVl6NUVOiBiR-60" value="" style="rounded=1;whiteSpace=wrap;html=1;fillColor=#e1d5e7;strokeColor=#9673a6;" parent="1" vertex="1">
          <mxGeometry x="86.63" y="-203" width="78.25" height="81" as="geometry" />
        </mxCell>
        <mxCell id="89p4u61IxVl6NUVOiBiR-61" value="QP" style="rounded=1;whiteSpace=wrap;html=1;fillColor=#dae8fc;strokeColor=#6c8ebf;" parent="1" vertex="1">
          <mxGeometry x="108.38" y="-171.5" width="34.75" height="43" as="geometry" />
        </mxCell>
        <mxCell id="89p4u61IxVl6NUVOiBiR-62" value="Process" style="text;strokeColor=none;align=center;fillColor=none;html=1;verticalAlign=middle;whiteSpace=wrap;rounded=0;" parent="1" vertex="1">
          <mxGeometry x="101.88" y="-195" width="53.25" height="16" as="geometry" />
        </mxCell>
        <mxCell id="89p4u61IxVl6NUVOiBiR-63" value="" style="endArrow=none;html=1;rounded=0;exitX=1;exitY=0.5;exitDx=0;exitDy=0;entryX=0;entryY=0.5;entryDx=0;entryDy=0;" parent="1" source="89p4u61IxVl6NUVOiBiR-61" target="89p4u61IxVl6NUVOiBiR-3" edge="1">
          <mxGeometry width="50" height="50" relative="1" as="geometry">
            <mxPoint x="101.75" y="48" as="sourcePoint" />
            <mxPoint x="151.75" y="-2" as="targetPoint" />
          </mxGeometry>
        </mxCell>
        <mxCell id="89p4u61IxVl6NUVOiBiR-65" value="" style="rounded=1;whiteSpace=wrap;html=1;fillColor=#fff2cc;strokeColor=#d6b656;" parent="1" vertex="1">
          <mxGeometry x="520.5" y="-235.25" width="134" height="120" as="geometry" />
        </mxCell>
        <mxCell id="89p4u61IxVl6NUVOiBiR-66" value="VM" style="text;strokeColor=none;align=center;fillColor=none;html=1;verticalAlign=middle;whiteSpace=wrap;rounded=0;" parent="1" vertex="1">
          <mxGeometry x="562" y="-228.25" width="51" height="13" as="geometry" />
        </mxCell>
        <mxCell id="89p4u61IxVl6NUVOiBiR-67" value="" style="rounded=1;whiteSpace=wrap;html=1;fillColor=#e1d5e7;strokeColor=#9673a6;" parent="1" vertex="1">
          <mxGeometry x="534.38" y="-206.25" width="104.12" height="81" as="geometry" />
        </mxCell>
        <mxCell id="89p4u61IxVl6NUVOiBiR-68" value="QP" style="rounded=1;whiteSpace=wrap;html=1;fillColor=#dae8fc;strokeColor=#6c8ebf;" parent="1" vertex="1">
          <mxGeometry x="539.5" y="-173.75" width="21.87" height="40" as="geometry" />
        </mxCell>
        <mxCell id="89p4u61IxVl6NUVOiBiR-69" value="Process" style="text;strokeColor=none;align=center;fillColor=none;html=1;verticalAlign=middle;whiteSpace=wrap;rounded=0;" parent="1" vertex="1">
          <mxGeometry x="560.87" y="-198.25" width="53.25" height="16" as="geometry" />
        </mxCell>
        <mxCell id="e23MiZItnUsEhFVkmW49-1" value="" style="rounded=1;whiteSpace=wrap;html=1;fillColor=#d5e8d4;strokeColor=#82b366;" vertex="1" parent="1">
          <mxGeometry x="26" y="246" width="357" height="167.5" as="geometry" />
        </mxCell>
        <mxCell id="e23MiZItnUsEhFVkmW49-2" value="" style="rounded=1;whiteSpace=wrap;html=1;fillColor=#fff2cc;strokeColor=#d6b656;" vertex="1" parent="1">
          <mxGeometry x="924.12" y="-442.25" width="106" height="120" as="geometry" />
        </mxCell>
        <mxCell id="e23MiZItnUsEhFVkmW49-3" value="VM" style="text;strokeColor=none;align=center;fillColor=none;html=1;verticalAlign=middle;whiteSpace=wrap;rounded=0;" vertex="1" parent="1">
          <mxGeometry x="951.62" y="-434.25" width="51" height="13" as="geometry" />
        </mxCell>
        <mxCell id="e23MiZItnUsEhFVkmW49-5" value="" style="rounded=1;whiteSpace=wrap;html=1;fillColor=#e1d5e7;strokeColor=#9673a6;" vertex="1" parent="1">
          <mxGeometry x="938" y="-413.25" width="78.25" height="81" as="geometry" />
        </mxCell>
        <mxCell id="e23MiZItnUsEhFVkmW49-6" value="QP" style="rounded=1;whiteSpace=wrap;html=1;fillColor=#dae8fc;strokeColor=#6c8ebf;" vertex="1" parent="1">
          <mxGeometry x="959.75" y="-381.75" width="34.75" height="43" as="geometry" />
        </mxCell>
        <mxCell id="e23MiZItnUsEhFVkmW49-7" value="Process" style="text;strokeColor=none;align=center;fillColor=none;html=1;verticalAlign=middle;whiteSpace=wrap;rounded=0;" vertex="1" parent="1">
          <mxGeometry x="953.25" y="-405.25" width="53.25" height="16" as="geometry" />
        </mxCell>
        <mxCell id="e23MiZItnUsEhFVkmW49-8" value="" style="rounded=1;whiteSpace=wrap;html=1;fillColor=#fff2cc;strokeColor=#d6b656;" vertex="1" parent="1">
          <mxGeometry x="744.5" y="-442.25" width="106" height="120" as="geometry" />
        </mxCell>
        <mxCell id="e23MiZItnUsEhFVkmW49-9" value="VM" style="text;strokeColor=none;align=center;fillColor=none;html=1;verticalAlign=middle;whiteSpace=wrap;rounded=0;" vertex="1" parent="1">
          <mxGeometry x="772" y="-434.25" width="51" height="13" as="geometry" />
        </mxCell>
        <mxCell id="e23MiZItnUsEhFVkmW49-10" value="" style="rounded=1;whiteSpace=wrap;html=1;fillColor=#e1d5e7;strokeColor=#9673a6;" vertex="1" parent="1">
          <mxGeometry x="758.38" y="-413.25" width="78.25" height="81" as="geometry" />
        </mxCell>
        <mxCell id="e23MiZItnUsEhFVkmW49-11" value="QP" style="rounded=1;whiteSpace=wrap;html=1;fillColor=#dae8fc;strokeColor=#6c8ebf;" vertex="1" parent="1">
          <mxGeometry x="780.13" y="-381.75" width="34.75" height="43" as="geometry" />
        </mxCell>
        <mxCell id="e23MiZItnUsEhFVkmW49-12" value="Process" style="text;strokeColor=none;align=center;fillColor=none;html=1;verticalAlign=middle;whiteSpace=wrap;rounded=0;" vertex="1" parent="1">
          <mxGeometry x="773.63" y="-405.25" width="53.25" height="16" as="geometry" />
        </mxCell>
        <mxCell id="e23MiZItnUsEhFVkmW49-13" value="" style="endArrow=none;html=1;rounded=0;exitX=1;exitY=0.5;exitDx=0;exitDy=0;entryX=0;entryY=0.5;entryDx=0;entryDy=0;" edge="1" parent="1" source="e23MiZItnUsEhFVkmW49-11" target="e23MiZItnUsEhFVkmW49-6">
          <mxGeometry width="50" height="50" relative="1" as="geometry">
            <mxPoint x="773.5" y="-162.25" as="sourcePoint" />
            <mxPoint x="823.5" y="-212.25" as="targetPoint" />
          </mxGeometry>
        </mxCell>
        <mxCell id="e23MiZItnUsEhFVkmW49-14" value="单 QP&lt;div&gt;单 Rack&lt;/div&gt;" style="edgeLabel;html=1;align=center;verticalAlign=middle;resizable=0;points=[];" vertex="1" connectable="0" parent="e23MiZItnUsEhFVkmW49-13">
          <mxGeometry x="0.0164" relative="1" as="geometry">
            <mxPoint as="offset" />
          </mxGeometry>
        </mxCell>
        <mxCell id="e23MiZItnUsEhFVkmW49-17" value="单 QP 同 Rack" style="text;strokeColor=none;align=center;fillColor=none;html=1;verticalAlign=middle;whiteSpace=wrap;rounded=0;" vertex="1" parent="1">
          <mxGeometry x="41.75" y="-300.75" width="109.5" height="30" as="geometry" />
        </mxCell>
        <mxCell id="e23MiZItnUsEhFVkmW49-20" style="edgeStyle=orthogonalEdgeStyle;rounded=0;orthogonalLoop=1;jettySize=auto;html=1;exitX=0.5;exitY=1;exitDx=0;exitDy=0;" edge="1" parent="1" source="89p4u61IxVl6NUVOiBiR-66" target="89p4u61IxVl6NUVOiBiR-66">
          <mxGeometry relative="1" as="geometry" />
        </mxCell>
        <mxCell id="e23MiZItnUsEhFVkmW49-21" value="QP" style="rounded=1;whiteSpace=wrap;html=1;fillColor=#dae8fc;strokeColor=#6c8ebf;" vertex="1" parent="1">
          <mxGeometry x="566.5" y="-173.75" width="21.87" height="40" as="geometry" />
        </mxCell>
        <mxCell id="e23MiZItnUsEhFVkmW49-22" value="...." style="text;strokeColor=none;align=center;fillColor=none;html=1;verticalAlign=middle;whiteSpace=wrap;rounded=0;" vertex="1" parent="1">
          <mxGeometry x="615.24" y="-162.75" width="26.13" height="17.5" as="geometry" />
        </mxCell>
        <mxCell id="e23MiZItnUsEhFVkmW49-25" value="QP" style="rounded=1;whiteSpace=wrap;html=1;fillColor=#dae8fc;strokeColor=#6c8ebf;" vertex="1" parent="1">
          <mxGeometry x="593.37" y="-173.75" width="21.87" height="40" as="geometry" />
        </mxCell>
        <mxCell id="e23MiZItnUsEhFVkmW49-26" value="" style="rounded=1;whiteSpace=wrap;html=1;fillColor=#fff2cc;strokeColor=#d6b656;" vertex="1" parent="1">
          <mxGeometry x="698.5" y="-235.25" width="134" height="120" as="geometry" />
        </mxCell>
        <mxCell id="e23MiZItnUsEhFVkmW49-27" value="VM" style="text;strokeColor=none;align=center;fillColor=none;html=1;verticalAlign=middle;whiteSpace=wrap;rounded=0;" vertex="1" parent="1">
          <mxGeometry x="740" y="-228.25" width="51" height="13" as="geometry" />
        </mxCell>
        <mxCell id="e23MiZItnUsEhFVkmW49-28" value="" style="rounded=1;whiteSpace=wrap;html=1;fillColor=#e1d5e7;strokeColor=#9673a6;" vertex="1" parent="1">
          <mxGeometry x="712.38" y="-206.25" width="104.12" height="81" as="geometry" />
        </mxCell>
        <mxCell id="e23MiZItnUsEhFVkmW49-29" value="QP" style="rounded=1;whiteSpace=wrap;html=1;fillColor=#dae8fc;strokeColor=#6c8ebf;" vertex="1" parent="1">
          <mxGeometry x="717.5" y="-173.75" width="21.87" height="40" as="geometry" />
        </mxCell>
        <mxCell id="e23MiZItnUsEhFVkmW49-30" value="Process" style="text;strokeColor=none;align=center;fillColor=none;html=1;verticalAlign=middle;whiteSpace=wrap;rounded=0;" vertex="1" parent="1">
          <mxGeometry x="738.87" y="-198.25" width="53.25" height="16" as="geometry" />
        </mxCell>
        <mxCell id="e23MiZItnUsEhFVkmW49-31" style="edgeStyle=orthogonalEdgeStyle;rounded=0;orthogonalLoop=1;jettySize=auto;html=1;exitX=0.5;exitY=1;exitDx=0;exitDy=0;" edge="1" parent="1" source="e23MiZItnUsEhFVkmW49-27" target="e23MiZItnUsEhFVkmW49-27">
          <mxGeometry relative="1" as="geometry" />
        </mxCell>
        <mxCell id="e23MiZItnUsEhFVkmW49-32" value="QP" style="rounded=1;whiteSpace=wrap;html=1;fillColor=#dae8fc;strokeColor=#6c8ebf;" vertex="1" parent="1">
          <mxGeometry x="744.5" y="-173.75" width="21.87" height="40" as="geometry" />
        </mxCell>
        <mxCell id="e23MiZItnUsEhFVkmW49-33" value="...." style="text;strokeColor=none;align=center;fillColor=none;html=1;verticalAlign=middle;whiteSpace=wrap;rounded=0;" vertex="1" parent="1">
          <mxGeometry x="793.24" y="-162.75" width="26.13" height="17.5" as="geometry" />
        </mxCell>
        <mxCell id="e23MiZItnUsEhFVkmW49-34" value="QP" style="rounded=1;whiteSpace=wrap;html=1;fillColor=#dae8fc;strokeColor=#6c8ebf;" vertex="1" parent="1">
          <mxGeometry x="771.37" y="-173.75" width="21.87" height="40" as="geometry" />
        </mxCell>
        <mxCell id="e23MiZItnUsEhFVkmW49-36" value="" style="endArrow=none;html=1;rounded=0;exitX=0.5;exitY=1;exitDx=0;exitDy=0;entryX=0.5;entryY=1;entryDx=0;entryDy=0;" edge="1" parent="1" source="89p4u61IxVl6NUVOiBiR-68" target="e23MiZItnUsEhFVkmW49-29">
          <mxGeometry width="50" height="50" relative="1" as="geometry">
            <mxPoint x="641.5" y="-54.25" as="sourcePoint" />
            <mxPoint x="691.5" y="-104.25" as="targetPoint" />
            <Array as="points">
              <mxPoint x="620.5" y="-109.25" />
            </Array>
          </mxGeometry>
        </mxCell>
        <mxCell id="e23MiZItnUsEhFVkmW49-37" value="" style="endArrow=none;html=1;rounded=0;exitX=0.5;exitY=1;exitDx=0;exitDy=0;entryX=0.5;entryY=1;entryDx=0;entryDy=0;" edge="1" parent="1">
          <mxGeometry width="50" height="50" relative="1" as="geometry">
            <mxPoint x="577.435" y="-132.75" as="sourcePoint" />
            <mxPoint x="755.4350000000004" y="-132.75" as="targetPoint" />
            <Array as="points">
              <mxPoint x="670.5" y="-108.25" />
            </Array>
          </mxGeometry>
        </mxCell>
        <mxCell id="e23MiZItnUsEhFVkmW49-38" value="" style="endArrow=none;html=1;rounded=0;exitX=0.5;exitY=1;exitDx=0;exitDy=0;entryX=0.5;entryY=1;entryDx=0;entryDy=0;" edge="1" parent="1" source="e23MiZItnUsEhFVkmW49-25" target="e23MiZItnUsEhFVkmW49-34">
          <mxGeometry width="50" height="50" relative="1" as="geometry">
            <mxPoint x="772.5" y="-39.25" as="sourcePoint" />
            <mxPoint x="822.5" y="-89.25" as="targetPoint" />
            <Array as="points">
              <mxPoint x="730.5" y="-107.25" />
            </Array>
          </mxGeometry>
        </mxCell>
        <mxCell id="e23MiZItnUsEhFVkmW49-39" value="多 QP 同 Rack" style="text;strokeColor=none;align=center;fillColor=none;html=1;verticalAlign=middle;whiteSpace=wrap;rounded=0;" vertex="1" parent="1">
          <mxGeometry x="498" y="-300.75" width="109.5" height="30" as="geometry" />
        </mxCell>
        <mxCell id="e23MiZItnUsEhFVkmW49-41" value="" style="rounded=1;whiteSpace=wrap;html=1;fillColor=#d5e8d4;strokeColor=#82b366;" vertex="1" parent="1">
          <mxGeometry x="45.5" y="-6" width="154" height="168.75" as="geometry" />
        </mxCell>
        <mxCell id="e23MiZItnUsEhFVkmW49-47" value="" style="rounded=1;whiteSpace=wrap;html=1;fillColor=#fff2cc;strokeColor=#d6b656;" vertex="1" parent="1">
          <mxGeometry x="68.5" y="26.25" width="106" height="120" as="geometry" />
        </mxCell>
        <mxCell id="e23MiZItnUsEhFVkmW49-48" value="VM" style="text;strokeColor=none;align=center;fillColor=none;html=1;verticalAlign=middle;whiteSpace=wrap;rounded=0;" vertex="1" parent="1">
          <mxGeometry x="96" y="34.25" width="51" height="13" as="geometry" />
        </mxCell>
        <mxCell id="e23MiZItnUsEhFVkmW49-49" value="" style="rounded=1;whiteSpace=wrap;html=1;fillColor=#e1d5e7;strokeColor=#9673a6;" vertex="1" parent="1">
          <mxGeometry x="82.38" y="55.25" width="78.25" height="81" as="geometry" />
        </mxCell>
        <mxCell id="e23MiZItnUsEhFVkmW49-50" value="QP" style="rounded=1;whiteSpace=wrap;html=1;fillColor=#dae8fc;strokeColor=#6c8ebf;" vertex="1" parent="1">
          <mxGeometry x="104.13" y="86.75" width="34.75" height="43" as="geometry" />
        </mxCell>
        <mxCell id="e23MiZItnUsEhFVkmW49-51" value="Process" style="text;strokeColor=none;align=center;fillColor=none;html=1;verticalAlign=middle;whiteSpace=wrap;rounded=0;" vertex="1" parent="1">
          <mxGeometry x="97.63" y="63.25" width="53.25" height="16" as="geometry" />
        </mxCell>
        <mxCell id="e23MiZItnUsEhFVkmW49-52" value="" style="rounded=1;whiteSpace=wrap;html=1;fillColor=#fff2cc;strokeColor=#d6b656;" vertex="1" parent="1">
          <mxGeometry x="959.75" y="-616" width="106" height="120" as="geometry" />
        </mxCell>
        <mxCell id="e23MiZItnUsEhFVkmW49-53" value="VM" style="text;strokeColor=none;align=center;fillColor=none;html=1;verticalAlign=middle;whiteSpace=wrap;rounded=0;" vertex="1" parent="1">
          <mxGeometry x="987.25" y="-608" width="51" height="13" as="geometry" />
        </mxCell>
        <mxCell id="e23MiZItnUsEhFVkmW49-54" value="" style="rounded=1;whiteSpace=wrap;html=1;fillColor=#e1d5e7;strokeColor=#9673a6;" vertex="1" parent="1">
          <mxGeometry x="973.63" y="-587" width="78.25" height="81" as="geometry" />
        </mxCell>
        <mxCell id="e23MiZItnUsEhFVkmW49-55" value="QP" style="rounded=1;whiteSpace=wrap;html=1;fillColor=#dae8fc;strokeColor=#6c8ebf;" vertex="1" parent="1">
          <mxGeometry x="995.38" y="-555.5" width="34.75" height="43" as="geometry" />
        </mxCell>
        <mxCell id="e23MiZItnUsEhFVkmW49-56" value="Process" style="text;strokeColor=none;align=center;fillColor=none;html=1;verticalAlign=middle;whiteSpace=wrap;rounded=0;" vertex="1" parent="1">
          <mxGeometry x="988.88" y="-579" width="53.25" height="16" as="geometry" />
        </mxCell>
        <mxCell id="e23MiZItnUsEhFVkmW49-57" value="10.1.1.4" style="text;strokeColor=none;align=center;fillColor=none;html=1;verticalAlign=middle;whiteSpace=wrap;rounded=0;" vertex="1" parent="1">
          <mxGeometry x="65.50999999999999" y="-3.75" width="112" height="30" as="geometry" />
        </mxCell>
        <mxCell id="e23MiZItnUsEhFVkmW49-58" value="" style="rounded=1;whiteSpace=wrap;html=1;fillColor=#d5e8d4;strokeColor=#82b366;" vertex="1" parent="1">
          <mxGeometry x="243" y="-6" width="154" height="168.75" as="geometry" />
        </mxCell>
        <mxCell id="e23MiZItnUsEhFVkmW49-59" value="" style="rounded=1;whiteSpace=wrap;html=1;fillColor=#fff2cc;strokeColor=#d6b656;" vertex="1" parent="1">
          <mxGeometry x="266" y="26.25" width="106" height="120" as="geometry" />
        </mxCell>
        <mxCell id="e23MiZItnUsEhFVkmW49-60" value="VM" style="text;strokeColor=none;align=center;fillColor=none;html=1;verticalAlign=middle;whiteSpace=wrap;rounded=0;" vertex="1" parent="1">
          <mxGeometry x="293.5" y="34.25" width="51" height="13" as="geometry" />
        </mxCell>
        <mxCell id="e23MiZItnUsEhFVkmW49-61" value="" style="rounded=1;whiteSpace=wrap;html=1;fillColor=#e1d5e7;strokeColor=#9673a6;" vertex="1" parent="1">
          <mxGeometry x="279.88" y="55.25" width="78.25" height="81" as="geometry" />
        </mxCell>
        <mxCell id="e23MiZItnUsEhFVkmW49-62" value="QP" style="rounded=1;whiteSpace=wrap;html=1;fillColor=#dae8fc;strokeColor=#6c8ebf;" vertex="1" parent="1">
          <mxGeometry x="301.63" y="86.75" width="34.75" height="43" as="geometry" />
        </mxCell>
        <mxCell id="e23MiZItnUsEhFVkmW49-63" value="Process" style="text;strokeColor=none;align=center;fillColor=none;html=1;verticalAlign=middle;whiteSpace=wrap;rounded=0;" vertex="1" parent="1">
          <mxGeometry x="295.13" y="63.25" width="53.25" height="16" as="geometry" />
        </mxCell>
        <mxCell id="e23MiZItnUsEhFVkmW49-64" value="10.1.1.5" style="text;strokeColor=none;align=center;fillColor=none;html=1;verticalAlign=middle;whiteSpace=wrap;rounded=0;" vertex="1" parent="1">
          <mxGeometry x="263.01" y="-3.75" width="112" height="30" as="geometry" />
        </mxCell>
        <mxCell id="e23MiZItnUsEhFVkmW49-65" value="10.1.1.4" style="text;strokeColor=none;align=center;fillColor=none;html=1;verticalAlign=middle;whiteSpace=wrap;rounded=0;" vertex="1" parent="1">
          <mxGeometry x="620.5" y="-262" width="112" height="30" as="geometry" />
        </mxCell>
        <mxCell id="e23MiZItnUsEhFVkmW49-66" value="" style="endArrow=none;html=1;rounded=0;exitX=1;exitY=0.5;exitDx=0;exitDy=0;entryX=0;entryY=0.5;entryDx=0;entryDy=0;" edge="1" parent="1" source="e23MiZItnUsEhFVkmW49-50" target="e23MiZItnUsEhFVkmW49-62">
          <mxGeometry width="50" height="50" relative="1" as="geometry">
            <mxPoint x="171" y="243" as="sourcePoint" />
            <mxPoint x="221" y="193" as="targetPoint" />
          </mxGeometry>
        </mxCell>
        <mxCell id="e23MiZItnUsEhFVkmW49-67" value="单 QP 不同 Rack" style="text;strokeColor=none;align=center;fillColor=none;html=1;verticalAlign=middle;whiteSpace=wrap;rounded=0;" vertex="1" parent="1">
          <mxGeometry x="171" y="-42" width="99" height="30" as="geometry" />
        </mxCell>
        <mxCell id="e23MiZItnUsEhFVkmW49-68" value="1 Client -&amp;gt; 1 Server&amp;nbsp;" style="text;strokeColor=none;align=center;fillColor=none;html=1;verticalAlign=middle;whiteSpace=wrap;rounded=0;" vertex="1" parent="1">
          <mxGeometry x="-176" y="-254" width="145.63" height="30" as="geometry" />
        </mxCell>
        <mxCell id="e23MiZItnUsEhFVkmW49-70" value="N Client -&amp;gt; 1 Server&amp;nbsp;" style="text;strokeColor=none;align=center;fillColor=none;html=1;verticalAlign=middle;whiteSpace=wrap;rounded=0;" vertex="1" parent="1">
          <mxGeometry x="-176" y="258" width="145.63" height="30" as="geometry" />
        </mxCell>
      </root>
    </mxGraphModel>
  </diagram>
</mxfile>
